<svg width="685" height="542" viewBox="0 0 685 542" fill="none" 
  xmlns="http://www.w3.org/2000/svg">
  <g clip-path="url(#clip0)">
    <path d="M251.7 265.1C249.7 266 252.6 265.1 253.3 265C252.3 265.4 251.6 265.7 250.2 266.2C251.2 266.4 253.8 264.5 258.1 263.3C258 263 253.2 264.7 251.7 265.1Z" fill="#020202"/>
    <path d="M170.6 304.9C172.4 303.7 167.3 306.6 165.2 308.1C165.7 308.1 170 305.3 168.6 306.4L166.8 307.6C169.5 305.8 168.8 307 172.5 304.3L170.1 305.8C173.1 303.9 166 308 170.6 304.9Z" fill="#020202"/>
    <path d="M267.7 259.2L269.6 258.6C268.9 258.7 268.3 258.9 267.7 259.2Z" fill="#020202"/>
    <path d="M392.3 222.8C396.3 222.3 396.7 221.6 399.4 220.6L392.3 222.8Z" fill="#020202"/>
    <path d="M179.2 299.5C177.4 300.3 175.3 301.1 172.5 303.2C175.2 302.3 176.1 301.1 179.2 299.5Z" fill="#020202"/>
    <path d="M219.9 279.7L218.8 279.9C220.2 280 213.5 282.3 211.2 283.5C213.9 282.3 218 281.2 223.1 278.5L219 280.2L219.9 279.7Z" fill="#020202"/>
    <path d="M267.7 259.2L264.7 260.3C265.1 260.4 266.2 259.8 267.7 259.2Z" fill="#020202"/>
    <path d="M273.8 258.8C273.3 259 272.7 259.2 271.8 259.5C272.6 259.2 273.2 259 273.8 258.8Z" fill="#020202"/>
    <path d="M273.8 258.8C276.3 258.1 276.1 258.6 280.3 256.9C279.2 257.2 277.5 257.9 276.5 258.1C276.6 257.8 276 258.1 273.8 258.8Z" fill="#020202"/>
    <path d="M264.3 263.6L265.8 262.8L262.1 264.2L264.3 263.6Z" fill="#030302"/>
    <path d="M271.1 260.4C269.3 260.8 261.6 264 260.3 263.9C257.8 265.5 267 261.9 271.1 260.4Z" fill="#020202"/>
    <path d="M228.6 277.6C227.2 278.1 225.8 278.7 224.5 279.2L224.2 279.4C225.6 278.8 226.9 278.3 228.3 277.8L228.6 277.6Z" fill="#020202"/>
    <path d="M63.9996 415.4C63.6996 416.1 63.5996 416.5 63.5996 416.6C64.0996 415.6 64.5996 414.6 65.0996 413.7C64.6996 414.2 64.2996 414.8 63.9996 415.4Z" fill="#020202"/>
    <path d="M63.6001 416.6C61.7001 420.4 59.9001 424.4 62.3001 420.5C62.9001 419.3 63.4001 418.1 64.1001 416.9C63.2001 418.5 63.4001 418.2 63.1001 418.5C64.3001 415.9 65.5001 414.4 66.6001 412.5C65.9001 413.5 63.5001 417.4 63.6001 416.6Z" fill="#020202"/>
    <path d="M65.8996 411.9C65.7996 412.2 65.4996 412.9 65.0996 413.7C65.4996 413.1 65.8996 412.4 66.1996 411.6L65.8996 411.9Z" fill="#020202"/>
    <path d="M51.8005 440.4L50.9005 442.4C50.0005 445.2 51.4005 442.1 52.3005 439.8C52.2005 440.1 52.4005 439.4 51.8005 440.4Z" fill="#020202"/>
    <path d="M474.1 197.1L474.4 196.9L471.5 197.9C471 198.1 470.6 198.2 470.1 198.4L470 198.5C471.3 198.1 472.7 197.6 474.1 197.1Z" fill="#020202"/>
    <path d="M94.6999 371.5C96.6999 368.9 100.4 365.7 100.9 364.4C99.2999 366.1 97.6999 367.7 96.0999 369.5C95.4999 370.3 93.6999 372.2 94.6999 371.5Z" fill="#020202"/>
    <path d="M141.6 327.2C140.3 328.3 138.6 329.6 137 330.9C137.9 330.5 139.8 329 141.5 327.6C143.2 326.2 144.6 325 144.4 325C144 325.4 142.9 326.2 141.6 327.2Z" fill="#020202"/>
    <path d="M77.5998 389.1C76.9998 389.8 76.3998 390.5 75.2998 392.4C77.1998 389.7 77.1998 390.8 80.0998 386.2C78.8998 387.8 78.1998 388.4 77.5998 389.1Z" fill="#020202"/>
    <path d="M127.7 337.6C125.9 339.5 123.9 341 125 340.5C125.6 340.1 130.5 335.7 130.8 335.9L131.9 334.5C129.4 336.6 126.7 338.6 127.7 337.6Z" fill="#020202"/>
    <path d="M79.9004 386.9C81.3004 385.2 81.5004 384.9 83.4004 382.2C82.7004 383.1 81.9004 384.1 81.2004 385C80.6004 385.8 80.1004 386.6 79.9004 386.9Z" fill="#020202"/>
    <path d="M535.8 165.9C535.2 166.3 534.7 166.6 534.1 167C534.5 166.8 535.2 166.4 535.8 165.9Z" fill="#020202"/>
    <path d="M513.7 179.9C512.3 180.5 510.4 181.3 509.6 181.7C511.1 181.6 509.6 182.4 507.2 183.5C504.8 184.6 501.6 185.9 499.7 187C500.8 186.6 503.4 185.3 504.1 185.1C503 185.8 500.5 187.1 498.7 187.8C499.1 187.7 499.2 187.7 499.1 187.9C500.8 187 503.7 185.5 506.8 183.9C509.8 182.3 513 180.6 515.2 179.5C516 178.9 515.1 179.3 513.7 179.9Z" fill="#020202"/>
    <path d="M451.1 205.3L449.1 205.8C448.6 206.1 446.1 207.1 451.1 205.3Z" fill="#020202"/>
    <path d="M499 187.9C498.4 188.2 497.9 188.5 497.7 188.6C498.5 188.3 498.8 188.1 499 187.9Z" fill="#020202"/>
    <path d="M446.8 206.4L449.1 205.8C449.3 205.7 449 205.7 446.8 206.4Z" fill="#020202"/>
    <path d="M498.7 187.8C498.3 187.9 497.7 188.1 497.1 188.4C497.4 188.3 498 188.1 498.7 187.8Z" fill="#020202"/>
    <path d="M399.4 220.6L401.7 219.9C400.7 220.2 400 220.4 399.4 220.6Z" fill="#020202"/>
    <path d="M-106 1.3999V540.5H789.9V1.3999H-106ZM630.9 72.3999L634.3 68.2999C632.4 70.9999 632.3 70.6999 630.9 72.3999L630.3 73.0999C630.5 72.8999 630.7 72.6999 630.9 72.3999ZM82.9 387.1C84.6 384.9 86.3 382.7 88.1 380.5C84.2 385.8 86.9 381.9 82.9 387.1ZM205.9 288.4C205.4 288.4 207.2 287.4 209.3 286.4C210.4 285.9 211.6 285.3 212.6 284.8C213.6 284.3 214.6 283.9 215.2 283.6C213.8 284.7 208.8 286.4 205.9 288.4ZM413 219.9L407.6 221.3L413.6 219.6L413 219.9ZM427.8 215.8L433.1 214.2L435.6 213.6L427.8 215.8ZM448.9 208.9L452 208.5C448.4 209.4 448.3 209 448.9 208.9ZM464.8 203.2L464.9 202.7L468.8 201.5C464.6 203 466.9 202.6 464.8 203.2ZM485.3 196C483.2 196.8 486.9 195.2 487.9 194.7C488.6 194.4 490.3 193.7 490.4 193.8C488.7 194.5 487 195.3 485.3 196ZM574.5 136.7C572.8 138.3 571.1 139.8 572.1 139.2C569.6 141.4 568.6 142 567.4 142.8C570.2 140.1 572.3 138.7 574.5 136.7C574.9 136.3 575.4 135.9 575.9 135.4C575.4 135.8 575 136.3 574.5 136.7ZM583.6 128.1C585.1 126.8 587.5 124.3 588.2 123.6C588.3 123.5 588.3 123.5 588.4 123.4C588.4 123.4 588.3 123.5 588.2 123.6C582 130.2 590 122.4 590.7 121.9C586.5 126.1 586.2 126 583.6 128.1ZM609.9 99.5999C610.7 98.8999 611.8 97.6999 613 96.2999C614.2 94.8999 615.1 93.5999 617.6 90.6999C615.9 92.8999 614.3 94.7999 613 96.2999C612.2 97.1999 611.3 98.1999 609.9 99.5999ZM617.1 92.0999C618.3 90.6999 618.5 89.9999 619.6 88.9999C621.3 87.4999 618.3 90.7999 617.1 92.0999ZM625.3 80.5999L625 81.6999C623.6 82.9999 620.6 86.6999 618.2 89.3999C618.8 88.6999 619.1 88.4999 619.4 88.2999C620.1 87.4999 620.8 86.7999 621.4 86.1999C620.1 87.7999 619.7 88.0999 619.4 88.2999C617.3 90.6999 614.4 93.9999 611.4 97.4999L615.6 92.3999C614.6 93.2999 612.8 95.3999 611.1 97.4999C609.3 99.5999 607.6 101.7 606.7 102.6C607.1 102.8 609.6 99.7999 607.3 103C603.8 107.2 602.6 108.2 601.5 109.3C600.3 110.3 599.3 111.2 595.6 114.8L596.7 113.4C594.4 115.8 592.3 117.4 589.3 121C589.6 121.2 592.1 118.5 593.4 117.3C593.1 117.7 592 118.7 590.7 120C589.4 121.2 587.8 122.7 586.6 124.1C589 122.2 594.7 116.5 598.4 112.5C598 113.1 598.1 113.2 598.8 112.7C587.6 124.4 574.6 136.4 562.6 146.9C569.4 141.7 559.8 149.3 561.7 148.5C560.6 149 556.9 152.4 553.3 155.1C552.2 156.5 560.4 149.8 557.8 152.3C556.1 153.6 554.3 155 552.3 156.4C550.3 157.8 548.2 159.3 546 160.8C543.8 162.3 541.5 163.8 539.2 165.3C538.1 166.1 536.9 166.9 535.8 167.6C534.6 168.4 533.5 169.1 532.3 169.8C533 169.5 535.2 168.2 535.6 168C529.4 171.9 520.9 176 516.8 178.8C518.3 178.1 520.1 177.3 521.8 176.4C523.5 175.5 525.3 174.6 526.9 173.8C527.7 173.3 528.3 173.1 528.7 172.8C530.8 171.6 532.8 170.5 534.3 169.7C530.5 172.4 529.9 172.3 528.7 172.8C528.1 173.1 527.5 173.4 526.9 173.8C526.1 174.3 525 175 523.4 176L525.8 174.9C523.9 176 522.6 176.8 521.6 177.3C520.6 177.8 519.9 178.1 519.3 178.2C518.1 178.6 517.4 178.7 515.2 179.7C513.7 180.7 512.2 181.6 510.6 182.6C502 187.4 493.5 190.9 487.4 192.8C485.7 193.5 479 196.3 481.9 195.5C484.2 194.8 486 194.4 488.3 193.6C490.6 192.8 493.4 191.7 497.9 189.6C499 188.7 491 192.3 493.6 191.1C495.5 190.3 498 189.1 500.5 187.9C503 186.7 505.3 185.5 506.9 184.9C503.7 186.4 500.5 188 497.3 189.4C497.6 189.9 501.3 187.6 503.1 187C502.5 187.4 501.7 187.9 500.8 188.3C499.9 188.7 498.8 189.2 497.7 189.7C495.5 190.7 493.1 191.7 491.2 192.7L491.9 192.4C488 194 486.3 194.8 484.6 195.4C482.9 196.1 481.2 196.8 477.2 198.2C476.6 197.9 479.8 196.9 483.4 195.2C470.8 200.4 453.1 205.6 440.3 210.4C442.9 209.7 445.6 209 448.2 208.4C443.4 210.1 434.8 212.2 435.4 212.7C440.9 210.8 438.6 211.9 441.5 211.1L441.8 210.9C442.5 210.7 444.6 210.1 443.3 210.6C441.1 211.1 438.4 211.8 435.5 212.6C432.6 213.4 429.7 214.1 427.4 214.8C429.5 214.3 425.2 215.8 424.6 216.1C420 217.4 424.5 215.8 424.7 215.6C422.2 216.3 418.2 217.1 416.2 218C412.8 219.3 420.5 217.1 421.7 217L407.8 220.5H408.2C407.1 220.7 404.9 221.2 403.6 221.7C402.3 222.3 405.5 221.5 407.6 220.8C400.5 223.2 394.7 223.7 388.7 226L390.7 225.5C389.6 225.8 388.9 226 388.5 226C388.5 226 388.6 226 388.6 225.9L384.5 226.8C384.1 227 383.5 227.3 384.2 227.1L380.2 228C372.7 229.9 378.3 229 375.9 229.8L376.3 229.7C377.1 229.5 377.9 229.2 378.8 229L376.3 229.7C374.1 230.4 372.4 231.1 374 230.7L366.1 232.6C366.7 232.5 367.2 232.5 366.9 232.7L366.1 232.6C363 233 351.5 236.1 351.4 235.4C349.3 236 347.7 236.6 348.7 236.5C348.8 236.5 349 236.4 349.1 236.4C350 236.1 350.7 236 352 235.6C350.7 235.9 349.9 236.2 349.1 236.4C349 236.4 348.9 236.5 348.8 236.5C343 238.1 350.3 236.7 341 239.2C341.1 239.3 342.1 239 343.5 238.7C341.1 239.4 340.1 239.6 339.6 239.7C339.6 239.8 339.5 239.9 339 240.2C338.9 239.9 335 241.1 333 241.8L336.4 241.3C334.2 241.7 332.8 242.1 328.9 243.2L331.5 242.8C325.2 244.5 330.8 242.3 323.3 244.8L330.2 242.5C322.1 244.7 324.6 243.4 321 244.2C312.4 246.2 302.3 250.3 295.6 251.4C294.7 252 295.8 251.8 293.5 252.8C298.8 251.2 301.6 250.5 304.3 250.1C314.7 247.4 306.5 248.1 318.1 245.4C317.6 246 314.1 247 310.9 247.8C310.7 248.2 314.7 247.3 317.2 246.7C310.6 248.4 301.5 251.8 297.4 253C297.5 253 297.6 253 297.7 252.9L297 253.1C297.1 253.1 297.3 253 297.4 253C295.4 253.5 290.3 254.9 288 255.7C287.9 255.8 287.7 255.9 286.9 256.2C287 256.1 287.4 255.9 288 255.7C288.1 255.5 285.6 256.2 283.5 256.8C281.4 257.4 279.6 257.8 281.1 257C274.1 259.3 277 259.2 270.1 260.9C272.8 260.4 265.8 262.7 268.8 262.1C271 260.9 278.6 259 282.2 258L272.3 261.7C274.7 260.8 271.1 261.7 269.7 262.1L268.5 262.9C267.6 262.8 263.3 264.5 258.6 266.4C256.2 267.3 253.8 268.3 251.6 269.2C249.4 270 247.5 270.7 246.1 270.9C249.2 269.8 251.7 268.4 253.4 268.3C259 265.9 252 268.1 254.5 266.8C250 268.4 244.4 270.6 238.7 272.9C235.9 274.1 233 275.3 230.3 276.4C228.9 276.9 227.6 277.5 226.3 278C225 278.5 223.7 279 222.5 279.5C223.4 279.2 224.9 278.6 226.3 278.1C227.7 277.6 228.9 277.2 229.2 277.2C227.4 278 225.6 278.8 223.7 279.6C221.8 280.4 219.8 281.2 217.7 282C215.7 282.8 213.6 283.6 211.5 284.5C209.4 285.4 207.4 286.3 205.4 287.2L207 286.9C203.6 288.3 202.9 288.7 202.2 289.1C201.9 289.3 201.5 289.5 200.8 289.9C200.1 290.3 199 290.8 197.2 291.8C197.5 291.6 198.3 290.9 196.7 291.8C190.9 294.9 196.3 292.5 192.5 294.6C184.9 297.8 189.2 296.8 180.1 301.5L180.9 301.3C173.7 305.1 165.2 311.2 158.1 316.1C158.4 315.9 159.8 314.8 161.2 313.9C162.5 313 163.7 312.1 163.2 312.1C160.1 314 157.1 316.1 154 318.1C153.5 318.6 149.7 321.4 152.2 319.9C153.4 319.1 154.6 318.2 155.4 317.5L154.4 318.5C146 324.3 154.5 317.6 154.2 317.3C149.9 320.6 148 321.3 145.1 323.5C144.5 324.2 146 323.2 147.2 322.5C148.4 321.8 149.3 321.3 147.6 322.8C146.4 323.9 143.6 325.9 140.7 328C137.9 330.1 134.9 332.2 133.4 333.2C132.5 334.2 131.1 335.6 129.4 337.1C127.8 338.6 125.9 340.2 124.1 341.8C120.7 344.9 117.7 347.6 117.9 348C118.1 347.7 116.6 348.8 114.8 350.6L116 349.7C113.4 352.4 111.9 353.6 110.7 354.5C109.5 355.4 108.5 356.1 107 357.8C107.1 357.8 108.2 356.8 108.9 356.4C105.4 360.1 102.5 362.8 99.7 365.6C98.3 367 96.9 368.4 95.5 370C94.1 371.6 92.6 373.3 91.1 375.3C91.4 375.1 91.7 374.8 92.4 374C92.7 373.7 91.6 375.1 89.3 377.6L91.4 374.6C87.3 378.1 82.8 385.9 77.8 392.7C78.3 392.1 82 387.2 80.3 389.9C78.7 392.1 77.8 393 76.9 394C76 395 75 396.2 73.5 399C75.2 396.6 75.1 397.6 76.7 395.3C77.2 394.5 77.8 393.7 78.3 392.9C77.6 394 77.1 394.7 76.7 395.3C75.5 397 74.6 398.6 73.9 399.8C73.1 401 72.5 402 72 402.5C71.4 403.5 71.3 404 71.3 404.1C71.5 403.8 71.8 403.5 72 403.3C71.7 403.9 71.4 404.1 71.3 404.1C70.5 405.2 69.6 406.7 68.7 408.2C68.3 409 67.8 409.7 67.4 410.5C67 411.3 66.6 412 66.3 412.6L66.8 412C63.4 416.2 62.5 419.6 59.5 425.8L60.2 424.9C59.5 426.2 58.7 427.8 57.7 429.7C56.8 431.6 55.9 433.8 55.1 436.1L56.4 433.8C56 434.7 55.5 435.8 54.9 437C54.4 438.2 53.9 439.6 53.4 440.9C52.9 442.2 52.4 443.5 52 444.7C51.6 445.9 51.2 446.9 50.8 447.6C50.4 449 52.6 444.3 50.5 450.4C49.8 451.8 48.2 456.6 47.9 458.3C48 458.3 48.4 457.6 48.8 455.9C49.1 454.8 48.9 455.5 48.7 455.9L49.6 453.8C49 456.2 48.6 457.2 48.3 458.2C48 459.2 47.6 460.2 47 462.8C46.9 463.9 47.7 461.1 48.1 460.4L46.7 465.2L45.5 470L44.9 472.4L44.4 474.8L43.3 479.7C43 480.1 43.3 477.6 42.7 479.3L43.9 472.6C44.2 469.4 42.8 476.2 42.2 479L43 474.4C43 474.2 42.9 474.3 42.8 474.7L42.6 475.5C42.7 475.2 42.7 474.9 42.8 474.7C43 473.5 43.2 472.4 43.5 471.2C42.9 473.5 42.7 474.1 42.7 473.8C42.7 473.5 42.8 472.3 43 471.1C43.4 468.8 43.7 466.5 42.4 471.5C43 469 43.9 466.2 44.4 464.8C45.7 460.2 45.2 461.3 45.5 459.5L44.4 462.9C44 464 43.7 465.1 43.4 466.3C43.7 465 44 464 44.2 463.3C44.4 462.6 44.5 462.1 44.5 461.9C44.6 461.4 44.5 461.6 44.3 461.9C44 462.5 43.5 463.5 44.4 459.6C47.2 450.8 47.9 445.5 49.5 440.9C53 432 48.6 444.4 50.9 439C52.8 434.2 51.6 436.5 52.8 433.5L54.2 431.6C55.4 428.9 55.3 428.8 55.1 429C54.9 429.2 54.6 429.7 55.4 428.2C57.1 423.8 54.5 429.4 53.8 430.4C54.3 429.4 56.7 424.8 57.5 422.7C57.3 422.7 54.7 428.4 56.3 424.7C56.7 423.9 57.1 423.1 57.5 422.3C57.9 421.6 58.3 420.8 58.6 420.2C59.3 418.8 59.9 417.6 60.5 416.4C61.7 414.1 62.8 412.1 63.8 410.1C65.9 406.2 67.9 402.5 71.6 397L70.8 397.8C71.6 396.6 72.4 395.7 73.1 394.4L72.5 395C72.8 394.6 73.5 393.6 74.4 392.3C75.4 390.9 76.6 389.2 78 387.4C79.6 386 81.1 384 82.6 382C84.2 380 85.6 378 87 376.3C86 377.4 85 378.5 84 379.6C85.7 377.6 87.5 375.7 89.2 373.7L88.3 374.1C90.3 372.2 96.1 365.1 101.2 359.8L101 359.6L104.2 356.5L103 357.5C103.8 356.7 104.6 355.9 105.5 355.1C106.4 354.3 107.3 353.5 108.2 352.6C109.1 351.8 110 350.9 111 350C111.9 349.1 112.9 348.2 113.7 347.3C111.4 349.6 110.5 349.8 110.6 349.5L115.6 345.1C117.3 343.6 119 342.2 120.7 340.8C120.8 340.5 124.3 337.3 122.7 338.5L121.9 339.1C122.2 338.8 122.5 338.7 122.7 338.5L126.1 335.9L125.6 336C133.4 329 141.3 323.3 149.3 317.9C157.3 312.4 165.5 307.3 174.2 301.5L173.8 301.6C177.4 299.6 181 297.8 184.6 295.9C186.5 294.8 186.9 294.2 190 292.3C188.7 293.5 196.2 289 198.4 288.3C200.9 286.9 198.2 288.1 197.4 288.3C202.6 285.5 207.3 283.2 212.2 281C214.7 279.9 217.2 278.8 219.8 277.7C222.4 276.5 225.1 275.3 228 274C225.1 275.3 223 276.5 221.3 277.3C219.6 278.2 218.2 278.8 217 279.4C214.6 280.6 212.6 281.4 208.7 283.5C209.9 283 210.9 282.5 211.9 282C212.9 281.6 213.7 281.2 214.5 280.8C216.1 280 217.5 279.4 218.9 278.7C221.7 277.4 224.6 275.9 229.7 273.9C228.1 274.5 226.5 275.1 224.9 275.7C227.4 274.3 231.3 272.7 234.8 271.3C236.5 270.6 238.1 270 239.4 269.4C240.7 268.9 241.6 268.4 241.9 268.1C248.1 265.8 253.6 264.3 261.1 261.5L257.7 262.1L264.6 259.6L264.8 260C267 259.2 268.1 258.7 268.4 258.5C267.5 258.7 266.7 258.9 265.9 259C267.8 258.4 268.7 258.3 268.4 258.5C270.9 257.9 273.7 257 276.8 256C278.3 255.5 279.9 255 281.6 254.4C283.2 253.9 284.9 253.4 286.6 253L287.3 252.6C286.6 252.7 286.3 252.8 287.8 252.3L287.3 252.6C287.8 252.5 288.5 252.3 288.7 252.3C289.9 251.5 295.2 249.9 295.3 249.5C293.2 250.1 288.2 251.5 288.7 251.6C283.3 253 295.2 249.2 298.7 248.1C295 249.5 299.9 248 302 247.4C302.3 247.2 301.6 247.4 301.2 247.5C307.7 245.2 310.3 245.5 314.5 243.5H315.8L320.9 241.7C321.6 242.3 328.3 239.6 329.3 240.1C335.3 238.4 328.4 239.9 330.5 239.4C336 237.6 346 235.5 347.8 234.7C347.6 234.8 347.3 234.8 347.1 234.9L348.1 234.4C348.2 234.5 348.1 234.6 347.8 234.7C352.7 233.6 357.9 232 362 231L362.2 230.6C364.4 230.1 366.9 229.6 369 228.9C369 228.9 368.7 228.9 368.2 229C367.1 229.3 366.1 229.5 365 229.8C366.3 229.4 367.5 229.1 368.2 229C376.2 227 382.6 225.2 389.4 223.4C389 223.3 388.9 223.2 385 224.2C391.2 222.2 401.7 220 411.1 217.2H410.4L415.8 216C414.7 216.2 415.4 215.9 415.3 215.8C424.1 213.2 434.7 210 439.8 209.1C439.3 209.1 443.7 207.5 439 208.7C448.3 206.3 459.8 202.4 469.7 198.8L469.9 198.7L471.1 198.3C475.1 196.8 478.8 195.5 482 194.4C482.6 194 483.4 193.4 485.7 192.3C485.8 192.5 488.6 191.2 492 189.6C493.7 188.8 495.5 187.9 497.2 187.1C498.9 186.3 500.5 185.6 501.7 185.1C502.3 184.7 499.7 186 501.2 185.1C507.1 182.3 514.4 178.7 521.7 174.5C523.5 173.4 525.4 172.4 527.2 171.3C529 170.2 530.8 169 532.6 167.9C533.5 167.3 534.4 166.8 535.2 166.2C536 165.6 536.9 165 537.7 164.4C539.4 163.2 541 162 542.6 160.9C543.4 160.9 546.3 158.8 549.9 156.2C551.7 154.9 553.7 153.4 555.6 151.9C557.5 150.4 559.4 149 561.1 147.7C561.7 146.8 560.8 147.6 559.4 148.6C558 149.7 556.2 151.1 555.2 151.6C557.1 150.2 557.2 149.9 557.6 149.3C558.1 148.8 559 148 562.3 145.4C562 145.6 562.2 145.3 560.8 146.5C564.3 143.4 560.4 147.6 565.8 142.7V142.3C567 141.5 568.2 140.5 569.4 139.6C580.3 129.4 589.4 120.4 597.9 110.5C598.5 110 598.4 110.3 597.3 111.6C599.3 109.4 601.5 107.1 603.8 104.7C606 102.3 608.3 99.6999 610.4 97.0999L609.1 98.3999C615.9 89.8999 616.5 90.2999 624.7 80.3999C622.9 82.6999 618.5 87.6999 618.4 88.3999C619.9 87.5999 624.1 82.4999 625.3 80.5999ZM632.1 71.6999V72.0999L629.9 74.5999L632.1 71.6999ZM632.5 71.8999C631.7 72.9999 631.2 73.4999 631.6 72.9999C631.8 72.6999 632.2 72.1999 632.5 71.8999C635.2 68.3999 642.3 58.6999 643.6 57.7999C640.6 61.7999 635.7 68.0999 632.5 71.8999Z" fill="#020202"/>
    <path d="M576.3 134.4L579.4 131.3L577.6 132.6L576.3 134.4Z" fill="#020202"/>
    <path d="M540.1 164.4L543 162.2L540.9 163.6L540.1 164.4Z" fill="#020202"/>
    <path d="M425.3 214.9L426.6 214.8L427.2 214.6L425.3 214.9Z" fill="#020202"/>
    <path d="M426.9 214.8H426.6L417.3 217.4L426.9 214.8Z" fill="#020202"/>
    <path d="M438.7 209.6C437.7 210 445 207.6 447.7 206.7C446.8 206.9 444.7 207.5 442.7 208.2C440.8 208.8 439 209.4 438.7 209.6Z" fill="#020202"/>
    <path d="M397.3 221.6C401.7 220.8 402.2 220.9 407.9 219.5L409.1 218.8C407 219.4 407.9 219.5 403.9 220.4C404.6 220 402.9 219.9 397.3 221.6Z" fill="#020202"/>
    <path d="M434.2 212.5L428.5 214C429.3 214.1 435.1 212.7 439.9 211C437 211.7 434.2 212.4 431.3 213.1L434.2 212.5Z" fill="#020202"/>
    <path d="M436.5 211.4C436.8 211.3 437.6 211.1 439.3 210.6C438.4 210.9 437.4 211.2 436.5 211.4Z" fill="#020202"/>
    <path d="M436.5 211.4C435.6 211.6 437.9 210.7 434.2 211.7C433.8 212 435 211.8 436.5 211.4Z" fill="#020202"/>
  </g>
  <defs>
    <clipPath id="clip0">
      <rect width="684.6" height="541.8" fill="#020202"/>
    </clipPath>
  </defs>
</svg>
